<svg width="21" height="21" viewBox="0 0 21 21" fill="none" xmlns="http://www.w3.org/2000/svg">
<path d="M8.97044 15.0398L9.71212 13.3409C10.3722 11.8292 11.5603 10.6257 13.0423 9.96788L15.0839 9.06165C15.7329 8.77355 15.7329 7.82928 15.0839 7.54117L13.106 6.66323C11.5859 5.98847 10.3766 4.74047 9.72775 3.1771L8.97644 1.36667C8.69764 0.694832 7.76935 0.694833 7.49055 1.36667L6.73921 3.17709C6.09041 4.74047 4.88101 5.98847 3.3609 6.66323L1.38309 7.54117C0.733999 7.82928 0.733998 8.77355 1.38309 9.06165L3.42467 9.96788C4.90666 10.6257 6.09475 11.8292 6.75483 13.3409L7.49655 15.0398C7.78166 15.6927 8.6853 15.6927 8.97044 15.0398ZM16.3965 19.1761L16.6051 18.698C16.977 17.8456 17.6467 17.1669 18.4824 16.7956L19.125 16.51C19.4726 16.3556 19.4726 15.8505 19.125 15.6961L18.5184 15.4265C17.6612 15.0457 16.9794 14.3419 16.6139 13.4605L16.3997 12.9439C16.2504 12.5839 15.7526 12.5839 15.6033 12.9439L15.3891 13.4605C15.0237 14.3419 14.342 15.0457 13.4847 15.4265L12.878 15.6961C12.5305 15.8505 12.5305 16.3556 12.878 16.51L13.5207 16.7956C14.3564 17.1669 15.0261 17.8456 15.3979 18.698L15.6066 19.1761C15.7592 19.526 16.2438 19.526 16.3965 19.1761Z" fill="white"/>
</svg>
