<svg width="181" height="139" viewBox="0 0 181 139" fill="none" xmlns="http://www.w3.org/2000/svg">
<g clip-path="url(#clip0_14_268)">
<path d="M63.1239 63.0489C62.3647 60.7124 62.8364 58.8255 63.0796 56.9717C63.8167 51.7496 64.4985 46.5164 65.4567 41.3385C66.437 36.0353 66.6028 30.651 67.3436 25.3331C67.502 24.1832 67.6826 23.0371 67.8632 21.891C68.2612 19.3518 69.54 17.6454 72.2414 17.2843C72.5537 17.2365 72.8627 17.1688 73.1664 17.0816C73.2549 17.0595 73.3212 16.9563 73.5866 16.713C73.5866 15.976 73.6603 15.0288 73.5866 14.1333C73.0043 7.83137 76.1921 2.97409 82.2434 1.12405C84.0456 0.574933 85.8256 -0.0700022 87.7972 0.0184461C94.6962 0.27642 100.961 5.54646 101.735 12.7587C101.79 13.282 101.875 13.7979 101.971 14.4871C103.236 14.9083 104.577 15.0566 105.903 14.922C106.909 14.8004 107.518 15.2463 107.82 16.1602C108.052 16.8605 108.42 17.568 108.431 18.2756C108.461 20.5458 109.345 22.5875 109.906 24.7176C111.203 29.6044 112.386 34.5206 113.687 39.4074C114.727 43.2786 115.487 47.2199 115.961 51.2005C116.316 54.004 116.356 56.8384 116.082 59.651C115.183 60.6062 114.003 61.2514 112.714 61.4936C107.049 62.7761 101.356 63.8596 95.5291 64.0734C92.7872 64.1729 90.049 64.3682 87.3108 64.464C83.2016 64.6078 79.0925 64.8326 74.9833 64.7883C70.9921 64.7367 67.0524 64.0107 63.1239 63.0489ZM112.957 58.4201C113.346 54.3028 113.041 50.1493 112.054 46.1331C110.469 39.47 108.911 32.7996 107.212 26.166C106.541 23.5383 105.52 21.0065 104.672 18.471C103.899 18.2626 103.112 18.1063 102.317 18.0029C101.16 17.9403 99.9957 17.9697 98.8385 18.0029C95.6765 18.1282 92.5145 18.283 89.3561 18.4304C88.5122 18.4673 87.6646 18.482 86.8243 18.5594C83.0468 18.9279 79.2694 19.2965 75.4919 19.6429C73.7835 19.7535 72.1104 20.1795 70.5572 20.8996C69.8871 24.6398 69.4551 28.4187 69.2636 32.2136C69.1752 33.8867 69.1973 35.5783 68.9762 37.233C68.5266 40.5756 67.9332 43.8961 67.4283 47.2314C66.8461 51.0862 66.2822 54.9448 65.7368 58.807C65.7343 59.1592 65.7726 59.5104 65.851 59.8537C66.2853 60.1057 66.7464 60.3084 67.2256 60.4581C68.8767 60.7897 70.5425 61.2209 72.2045 61.302C76.2953 61.5084 80.3971 61.6226 84.4952 61.6153C87.0159 61.6153 89.5441 61.3462 92.0649 61.1472C95.7502 60.8598 99.4355 60.6497 103.088 60.178C106.32 59.78 109.515 59.054 112.957 58.4201ZM99.126 14.6198C98.8459 13.3299 98.7022 12.4086 98.4368 11.502C96.2256 3.92122 90.7418 1.10931 83.3269 3.76275C82.2312 4.13137 81.1956 4.6591 80.2533 5.32902C78.7239 6.46411 77.4009 7.85717 76.9365 9.79198C76.3469 12.029 75.9783 14.2844 76.8997 16.6099C77.3658 16.6446 77.8339 16.6446 78.3001 16.6099C78.5929 16.5246 78.873 16.4006 79.133 16.2413C79.1663 15.6042 79.1663 14.9658 79.133 14.3286C78.9502 12.4237 79.4398 10.515 80.5168 8.93316C81.5937 7.35135 83.1902 6.19625 85.0295 5.66808C88.5748 4.58827 92.4445 5.97765 94.195 9.21338C95.1827 11.056 96.0045 12.9577 96.9479 14.933L99.126 14.6198ZM93.1852 15.3126C93.1966 13.2999 92.5652 11.3362 91.3831 9.70721C90.906 9.00216 90.2332 8.45205 89.4474 8.12464C88.6616 7.79723 87.7972 7.70681 86.9607 7.86454C84.9816 8.17411 83.6217 9.56348 82.6193 11.2587C82.1595 11.9793 81.8776 12.7989 81.7969 13.6498C81.7161 14.5008 81.8389 15.3587 82.155 16.1529L93.1852 15.3126Z" fill="white"/>
</g>
<path d="M8.57708 127.141C7.77724 127.141 6.99441 127.039 6.2286 126.835C5.46279 126.648 4.73101 126.342 4.03327 125.916C2.85903 125.167 1.96558 124.172 1.35293 122.929C0.757302 121.704 0.459487 120.419 0.459487 119.075C0.459487 118.462 0.527559 117.85 0.663703 117.237C0.850901 116.335 1.17424 115.459 1.63373 114.608C2.09322 113.757 2.68034 113.051 3.3951 112.489C4.12687 111.91 4.99479 111.621 5.99885 111.621H6.15202C6.45834 111.638 6.69659 111.749 6.86677 111.953C7.05397 112.123 7.14757 112.336 7.14757 112.591C7.14757 112.744 7.09652 112.906 6.99441 113.076C6.68808 113.57 6.53492 114.046 6.53492 114.506C6.53492 115.714 7.25819 116.641 8.70472 117.288C9.28333 117.492 9.85344 117.594 10.415 117.594C11.7084 117.594 12.8231 117.033 13.7591 115.91C14.4058 115.008 14.9163 114.004 15.2907 112.897C15.6651 111.774 16.014 110.685 16.3373 109.63C17.1542 107.247 17.9285 104.848 18.6603 102.431C19.2219 100.44 19.8685 98.4831 20.6003 96.5601C20.9066 95.7602 21.281 94.9859 21.7235 94.2371C22.166 93.4883 22.7616 92.8757 23.5104 92.3992C24.089 92.0758 24.6846 91.9141 25.2973 91.9141C25.8589 91.9141 26.395 92.0673 26.9055 92.3736C27.2288 92.5949 27.4586 92.8501 27.5947 93.1394C27.7309 93.4117 27.7989 93.7095 27.7989 94.0329C27.7989 94.3903 27.7479 94.7647 27.6458 95.1561C27.2714 96.6366 26.8204 98.0917 26.2928 99.5212C25.8163 101.019 25.3739 102.516 24.9654 104.014C26.1737 103.793 27.2799 103.316 28.284 102.584C29.3391 101.768 30.1304 100.712 30.658 99.4191C31.2025 98.1087 31.4748 96.7813 31.4748 95.4369C31.4748 94.5009 31.3472 93.6074 31.0919 92.7565C30.5644 91.1909 29.6624 90.0336 28.3861 89.2849C27.1267 88.5361 25.7057 88.1446 24.123 88.1106H23.7657C22.166 88.1106 20.6088 88.4254 19.0942 89.0551C17.5796 89.6678 16.2692 90.5697 15.1631 91.761C14.0739 92.9693 13.3762 94.3818 13.0698 95.9985C13.0018 96.3899 12.9677 96.8494 12.9677 97.3769C12.9677 98.0406 13.0784 98.6703 13.2996 99.2659C13.5378 99.8616 13.9803 100.202 14.627 100.287C15.1035 100.321 15.4183 100.559 15.5715 101.002C15.6225 101.257 15.6481 101.512 15.6481 101.768C15.6481 102.976 15.1886 104.099 14.2696 105.137C13.1634 106.192 11.836 106.754 10.2874 106.822C10.1002 106.839 9.92151 106.847 9.75133 106.847C8.25374 106.847 6.87528 106.431 5.61595 105.597C4.37363 104.746 3.56528 103.546 3.19088 101.997C3.05474 101.334 2.98666 100.67 2.98666 100.006C2.98666 98.5256 3.25895 97.0706 3.80353 95.6411C4.3481 94.1946 5.06286 92.8927 5.9478 91.7355C7.08801 90.2719 8.41541 89.1062 9.93002 88.2382C11.4446 87.3533 13.0784 86.6471 14.8312 86.1195C16.1926 85.6941 17.5881 85.3537 19.0176 85.0984C20.4642 84.8432 21.9107 84.7155 23.3572 84.7155C24.9059 84.7155 26.4375 84.8942 27.9521 85.2516C29.4667 85.609 30.9047 86.2046 32.2662 87.0385C34.6997 88.5361 36.2909 90.6548 37.0397 93.3947C37.2439 94.2626 37.3461 95.1305 37.3461 95.9985C37.3461 98.2959 36.6483 100.449 35.2528 102.457C34.2658 103.767 33.0745 104.856 31.679 105.724C33.9254 106.899 35.5166 108.668 36.4526 111.034C36.8781 112.242 37.0908 113.493 37.0908 114.786C37.0908 116.505 36.7589 118.164 36.0952 119.764C35.0061 122.334 33.1256 124.044 30.4538 124.895C29.3306 125.235 28.1989 125.406 27.0587 125.406C26.0206 125.406 25.008 125.261 24.0209 124.972C23.0509 124.682 22.149 124.223 21.3151 123.593C20.3961 122.895 19.6899 122.079 19.1963 121.143C17.988 123.151 16.3033 124.708 14.142 125.814C12.3551 126.699 10.5001 127.141 8.57708 127.141ZM26.2418 117.262C26.8715 117.262 27.4586 117.152 28.0032 116.931C28.82 116.556 29.4327 115.978 29.8411 115.195C30.2666 114.395 30.4793 113.561 30.4793 112.693C30.4793 112.336 30.4452 111.978 30.3772 111.621C30.1389 110.498 29.5858 109.553 28.7179 108.788C28.2414 108.379 27.7138 108.098 27.1352 107.945C26.5736 107.775 25.995 107.69 25.3994 107.69C25.2122 107.69 25.025 107.698 24.8378 107.715C24.5315 107.766 24.2252 107.817 23.9188 107.869C23.3572 110.03 22.7446 112.191 22.0809 114.352C22.0979 114.54 22.1404 114.735 22.2085 114.94C22.5148 115.705 23.0509 116.284 23.8167 116.675C24.5996 117.067 25.4079 117.262 26.2418 117.262ZM60.2949 122.342C59.3589 122.342 58.4229 122.104 57.4869 121.628C56.4828 121.083 55.7851 120.368 55.3937 119.483C55.0022 118.598 54.8065 117.654 54.8065 116.65C54.8065 115.969 54.8661 115.28 54.9852 114.582C54.2535 115.978 53.4281 117.314 52.5091 118.59C51.7093 119.73 50.7903 120.641 49.7522 121.321C48.7311 121.985 47.5313 122.317 46.1529 122.317C44.9957 122.317 43.898 122.036 42.8599 121.474C41.8048 120.845 41.0134 120.002 40.4859 118.947C39.9413 117.875 39.669 116.76 39.669 115.603C39.669 114.888 39.7456 114.174 39.8988 113.459C40.0519 112.727 40.2306 112.021 40.4348 111.34C40.9794 109.502 41.6431 107.707 42.4259 105.954C43.2258 104.184 44.0597 102.448 44.9276 100.746C45.1488 100.304 45.3786 99.8701 45.6168 99.4446C45.8891 98.9681 46.2975 98.6363 46.8421 98.4491C47.4037 98.2448 48.0589 98.1427 48.8077 98.1427C49.4714 98.1427 50.1266 98.2534 50.7733 98.4746C51.42 98.6958 51.8539 99.1043 52.0751 99.6999C52.1092 99.785 52.1262 99.8786 52.1262 99.9807C52.1262 100.236 52.0326 100.457 51.8454 100.644C51.6582 100.815 51.5306 101.01 51.4625 101.232C50.7307 102.678 50.1606 104.125 49.7522 105.571C49.0885 107.46 48.5865 109.4 48.2461 111.391C48.195 111.664 48.1695 111.961 48.1695 112.285C48.1695 112.608 48.2121 112.931 48.2971 113.255C48.3822 113.578 48.5354 113.85 48.7566 114.072C49.0459 114.31 49.3693 114.429 49.7267 114.429C49.999 114.429 50.2712 114.369 50.5435 114.25C51.5136 113.808 52.3559 113.127 53.0707 112.208C53.8025 111.272 54.4321 110.362 54.9597 109.477C56.3211 107.23 57.5635 104.907 58.6867 102.508C58.8738 102.082 59.0951 101.555 59.3504 100.925C59.5716 100.364 59.8269 99.8445 60.1162 99.368C60.4055 98.8915 60.8479 98.5427 61.4436 98.3214C61.9201 98.1683 62.4391 98.0917 63.0007 98.0917C63.6644 98.0917 64.3026 98.2193 64.9152 98.4746C65.5279 98.7128 65.9619 99.1213 66.2171 99.6999C66.2512 99.785 66.2682 99.8701 66.2682 99.9552C66.2682 100.176 66.2001 100.364 66.064 100.517C65.9448 100.653 65.7917 100.891 65.6045 101.232C65.4173 101.572 65.2556 101.938 65.1195 102.329C64.7621 103.316 64.4473 104.312 64.175 105.316C63.8346 106.456 63.5368 107.562 63.2815 108.634C63.0262 109.689 62.8901 110.753 62.8731 111.825C62.8731 112.285 62.9326 112.736 63.0518 113.178C63.1879 113.604 63.4517 113.952 63.8431 114.225C64.3537 114.565 64.8982 114.735 65.4768 114.735C66.2767 114.735 67.034 114.497 67.7487 114.021C68.923 113.204 69.876 112.149 70.6078 110.855C71.3566 109.545 71.9777 108.226 72.4712 106.899C72.6414 106.405 72.9563 106.158 73.4158 106.158C73.671 106.158 73.9093 106.235 74.1305 106.388C74.3517 106.541 74.4624 106.754 74.4624 107.026C74.4624 107.179 74.4283 107.324 74.3603 107.46C73.8667 108.805 73.2796 110.106 72.5989 111.366C71.5438 113.459 70.2844 115.416 68.8209 117.237C68.1572 118.071 67.3744 118.879 66.4724 119.662C65.5704 120.428 64.5919 121.066 63.5368 121.577C62.4817 122.087 61.401 122.342 60.2949 122.342ZM76.6832 138.041C74.9814 138.041 73.3477 137.633 71.782 136.816C70.5908 136.135 69.6718 135.225 69.0251 134.085C68.3784 132.945 68.0551 131.702 68.0551 130.358C68.0381 128.775 68.421 127.363 69.2038 126.12C69.4591 125.746 69.8079 125.346 70.2504 124.921C70.6929 124.495 71.1609 124.282 71.6544 124.282C71.9607 124.282 72.2245 124.385 72.4457 124.589C72.667 124.793 72.7776 125.023 72.7776 125.278C72.7776 125.448 72.718 125.627 72.5989 125.814C72.4968 126.001 72.4457 126.239 72.4457 126.529C72.4457 127.448 72.6414 128.188 73.0328 128.75C73.4243 129.311 73.9178 129.72 74.5134 129.975C75.1261 130.23 75.7727 130.358 76.4535 130.358C77.3044 130.358 78.1042 130.162 78.853 129.771C79.6188 129.396 80.257 128.852 80.7675 128.137C81.7376 126.69 82.4864 125.116 83.0139 123.414C83.5585 121.73 84.0435 120.053 84.469 118.386L86.0006 112.821C85.0476 114.846 83.9244 116.769 82.631 118.59C81.8141 119.73 80.8952 120.641 79.8741 121.321C78.853 121.985 77.6532 122.317 76.2748 122.317C75.1176 122.317 74.0114 122.036 72.9563 121.474C71.9011 120.845 71.1098 120.002 70.5822 118.947C70.0377 117.875 69.7654 116.76 69.7654 115.603C69.7654 114.888 69.842 114.174 69.9951 113.459C70.1483 112.727 70.327 112.021 70.5312 111.34C71.0928 109.502 71.765 107.707 72.5478 105.954C73.3307 104.184 74.1645 102.448 75.0495 100.746C75.2537 100.304 75.4749 99.8701 75.7132 99.4446C76.0195 98.9681 76.445 98.6363 76.9895 98.4491C77.5511 98.2448 78.1978 98.1427 78.9296 98.1427C79.5933 98.1427 80.24 98.2534 80.8696 98.4746C81.5163 98.6958 81.9588 99.1043 82.197 99.6999L82.2226 99.9807C82.2226 100.338 82.0949 100.593 81.8397 100.746C81.5844 101.223 81.3291 101.725 81.0739 102.253C80.6314 103.342 80.2315 104.448 79.8741 105.571C79.1934 107.46 78.6828 109.4 78.3425 111.391C78.2914 111.664 78.2659 111.961 78.2659 112.285C78.2659 112.608 78.3084 112.931 78.3935 113.255C78.4786 113.578 78.6318 113.85 78.853 114.072C79.1593 114.31 79.4827 114.429 79.823 114.429C80.1123 114.429 80.3846 114.369 80.6399 114.25C81.6269 113.808 82.4778 113.127 83.1926 112.208C83.9244 111.272 84.554 110.362 85.0816 109.477C86.443 107.23 87.6854 104.907 88.8085 102.508C88.9787 102.099 89.2425 101.495 89.5999 100.695C90.0594 99.7935 90.7061 99.1383 91.5399 98.7299C92.3738 98.3044 93.2503 98.0917 94.1692 98.0917C94.5777 98.0917 94.9946 98.1257 95.4201 98.1938C95.8625 98.2619 96.2284 98.398 96.5177 98.6022C96.824 98.8064 96.9772 99.0957 96.9772 99.4701C96.9772 99.8445 96.7985 100.108 96.4411 100.261C96.0838 100.823 95.82 101.41 95.6498 102.023C95.2414 103.282 94.8925 104.593 94.6032 105.954C94.3139 107.298 94.0076 108.668 93.6842 110.064C92.6461 114.182 91.5144 118.284 90.2891 122.368C89.7956 124.189 89.234 126.027 88.6043 127.882C87.9917 129.754 87.1323 131.473 86.0261 133.038C84.8519 134.604 83.4819 135.829 81.9163 136.714C80.3506 137.599 78.6062 138.041 76.6832 138.041ZM149.359 127.499C148.321 127.499 147.317 127.261 146.346 126.784C145.428 126.308 144.713 125.669 144.202 124.87C143.709 124.07 143.368 123.185 143.181 122.215C142.994 121.245 142.9 120.275 142.9 119.305L142.926 118.718C143.096 114.888 143.513 111.076 144.177 107.281C144.772 103.299 145.53 99.3425 146.449 95.4113L146.602 94.7987C144.117 98.6277 142.109 102.67 140.577 106.924C139.641 109.392 138.85 111.902 138.203 114.455C137.965 115.425 137.752 116.412 137.565 117.416C137.395 118.403 137.31 119.39 137.31 120.377V120.479C137.31 120.53 137.31 120.564 137.31 120.581C137.412 120.734 137.463 120.896 137.463 121.066C137.463 121.134 137.446 121.219 137.412 121.321C137.174 121.9 136.791 122.368 136.263 122.725C135.753 123.083 135.2 123.346 134.604 123.517C134.128 123.653 133.651 123.721 133.175 123.721C132.102 123.721 131.107 123.372 130.188 122.674C129.133 121.755 128.418 120.615 128.044 119.254C127.669 117.875 127.422 116.514 127.303 115.169C126.946 111.953 126.742 108.728 126.691 105.495C126.64 103.81 126.614 102.125 126.614 100.44C126.614 99.4531 126.623 98.4746 126.64 97.5046C125.823 101.3 124.972 105.086 124.087 108.864C123.678 110.685 123.202 112.531 122.657 114.403C122.13 116.258 121.415 118.011 120.513 119.662C119.356 121.704 117.816 123.423 115.893 124.818C113.987 126.214 111.842 127.005 109.46 127.193C109.222 127.21 108.992 127.218 108.771 127.218C107.562 127.218 106.363 127.022 105.171 126.631C103.997 126.239 102.934 125.661 101.981 124.895C100.057 123.193 98.9598 121.075 98.6875 118.539C98.6535 118.233 98.6365 117.926 98.6365 117.62C98.6365 116.463 98.8662 115.331 99.3257 114.225C99.7852 113.119 100.483 112.191 101.419 111.442C101.981 111 102.593 110.634 103.257 110.345C103.938 110.038 104.635 109.885 105.35 109.885H105.401C105.929 109.885 106.439 110.013 106.933 110.268C107.426 110.523 107.673 110.898 107.673 111.391C107.673 111.544 107.639 111.706 107.571 111.876C107.554 111.961 107.511 112.046 107.443 112.132C107.137 112.608 106.984 113.119 106.984 113.663C106.984 114.242 107.137 114.786 107.443 115.297C107.784 115.824 108.235 116.216 108.796 116.471C109.375 116.726 109.97 116.854 110.583 116.854C110.719 116.854 110.855 116.846 110.992 116.829C112.438 116.624 113.544 115.893 114.31 114.633C115.178 113.323 115.901 111.927 116.48 110.447C117.075 108.949 117.603 107.46 118.063 105.98C119.118 102.61 120.054 99.2149 120.871 95.7942C121.347 93.7691 121.943 91.795 122.657 89.872C121.875 89.906 121.083 89.9315 120.283 89.9486C118.701 89.9145 117.058 89.9911 115.357 90.1783C113.672 90.3485 112.2 90.9781 110.94 92.0673C109.97 93.0884 109.485 94.2116 109.485 95.4369C109.485 96.0836 109.63 96.7047 109.919 97.3003C110.226 97.879 110.694 98.364 111.323 98.7554C111.647 98.9085 111.953 99.0617 112.242 99.2149C112.532 99.368 112.702 99.6488 112.753 100.057V100.185C112.753 100.372 112.736 100.559 112.702 100.746C112.583 101.938 112.191 103.018 111.528 103.988C110.881 104.839 110.081 105.46 109.128 105.852C108.175 106.226 107.18 106.413 106.141 106.413C105.086 106.413 104.065 106.243 103.078 105.903C101.359 105.307 100.117 104.303 99.3512 102.891C98.6024 101.461 98.228 99.9211 98.228 98.2704C98.228 96.4494 98.6194 94.7136 99.4023 93.0629C100.679 90.4931 102.653 88.6892 105.325 87.6511C106.686 87.1576 108.098 86.8428 109.562 86.7066C111.043 86.5535 112.506 86.4769 113.953 86.4769C114.463 86.4769 114.965 86.4769 115.459 86.4769C116.888 86.5109 118.318 86.5875 119.747 86.7066C121.177 86.8258 122.606 86.9023 124.036 86.9364C124.444 86.2386 124.912 85.5834 125.44 84.9708C125.984 84.3581 126.597 83.8646 127.278 83.4902C127.976 83.0988 128.75 82.9031 129.601 82.9031H129.626C129.916 82.9031 130.239 82.9286 130.596 82.9797C130.971 83.0307 131.294 83.1413 131.566 83.3115C132.026 83.5328 132.383 83.8816 132.638 84.3581C132.894 84.8346 133.021 85.3282 133.021 85.8387C133.021 86.0599 132.996 86.2812 132.945 86.5024C132.604 87.4724 131.941 88.1532 130.954 88.5446H130.903C130.903 88.6126 130.903 88.6722 130.903 88.7233C130.886 89.1487 130.877 89.5657 130.877 89.9741C130.877 91.0462 130.903 92.1269 130.954 93.216C131.209 98.4916 131.847 103.733 132.868 108.941C133.209 110.83 133.651 112.693 134.196 114.531C134.502 113.102 134.876 111.689 135.319 110.294C136.408 106.822 137.778 103.461 139.429 100.21C140.892 97.2833 142.611 94.5009 144.585 91.8631C145.47 90.6208 146.474 89.4295 147.597 88.2893C148.738 87.1491 150.065 86.3578 151.58 85.9153C151.869 85.8302 152.175 85.7877 152.499 85.7877C152.635 85.7877 152.771 85.8047 152.907 85.8387C153.196 85.7877 153.494 85.7621 153.8 85.7621C154.243 85.7621 154.685 85.8302 155.128 85.9663C155.502 86.1025 155.86 86.3067 156.2 86.579C156.54 86.8513 156.77 87.1916 156.889 87.6001C156.923 87.7022 156.94 87.8043 156.94 87.9064C156.94 88.2127 156.821 88.4935 156.583 88.7488C156.481 88.8509 156.43 88.9019 156.43 88.9019L156.481 88.8509L156.379 88.9275L156.2 89.1317C156.166 89.1657 156.132 89.1998 156.098 89.2338C156.047 89.3189 155.987 89.404 155.919 89.4891C155.8 89.6933 155.681 89.906 155.562 90.1272C154.949 91.2675 154.447 92.5013 154.056 93.8287C153.681 95.1391 153.358 96.4494 153.086 97.7598C152.303 101.214 151.775 104.712 151.503 108.251C151.35 109.902 151.273 111.57 151.273 113.255C151.273 114.923 151.384 116.573 151.605 118.207C151.792 119.5 152.107 120.683 152.55 121.755C152.652 121.993 152.771 122.232 152.907 122.47C152.975 122.572 153.035 122.666 153.086 122.751C153.171 122.87 153.213 122.929 153.213 122.929C153.486 123.287 153.766 123.534 154.056 123.67C154.379 123.908 154.541 124.197 154.541 124.538C154.541 124.708 154.498 124.87 154.413 125.023C153.834 125.84 153.094 126.452 152.192 126.861C151.29 127.286 150.346 127.499 149.359 127.499ZM165.415 122.317C163.56 122.317 161.841 121.815 160.259 120.811C158.693 119.79 157.612 118.326 157.017 116.42C156.727 115.348 156.583 114.242 156.583 113.102C156.583 111.366 156.872 109.621 157.451 107.869C158.012 106.116 158.795 104.516 159.799 103.069C160.803 101.623 161.986 100.457 163.347 99.5722C164.709 98.6873 166.181 98.2448 167.764 98.2448C169.057 98.2448 170.291 98.6022 171.465 99.317C172.639 100.032 173.397 101.112 173.737 102.559C173.822 102.967 173.865 103.376 173.865 103.784C173.865 104.839 173.635 105.86 173.175 106.847C172.733 107.817 172.154 108.702 171.44 109.502C170.691 110.37 169.755 111.136 168.632 111.8C167.508 112.463 166.36 112.795 165.185 112.795C164.828 112.795 164.479 112.753 164.139 112.668C164.786 113.519 165.628 114.182 166.666 114.659C167.721 115.118 168.785 115.348 169.857 115.348C170.895 115.348 171.831 115.135 172.665 114.71C173.516 114.267 174.282 113.706 174.962 113.025C175.66 112.327 176.298 111.561 176.877 110.728C177.711 109.536 178.374 108.251 178.868 106.873C178.953 106.652 179.081 106.49 179.251 106.388C179.438 106.269 179.625 106.209 179.812 106.209C180.068 106.209 180.297 106.286 180.502 106.439C180.706 106.592 180.808 106.796 180.808 107.052C180.808 107.154 180.791 107.273 180.757 107.409C179.634 110.591 178.06 113.502 176.034 116.139C174.009 118.76 171.559 120.632 168.683 121.755C167.611 122.13 166.521 122.317 165.415 122.317ZM163.271 109.273C165.143 109.119 166.717 108.328 167.993 106.899C168.47 106.354 168.887 105.741 169.244 105.061C169.602 104.363 169.78 103.657 169.78 102.942C169.712 102.091 169.21 101.665 168.274 101.665C167.866 101.665 167.466 101.759 167.074 101.946C166.683 102.116 166.343 102.329 166.053 102.584C165.1 103.367 164.403 104.363 163.96 105.571C163.518 106.779 163.288 108.013 163.271 109.273Z" fill="white"/>
<defs>
<clipPath id="clip0_14_268">
<rect width="64.781" height="64.781" fill="white" transform="translate(57.1095)"/>
</clipPath>
</defs>
</svg>
