<svg width="24" height="24" viewBox="0 0 24 24" fill="none" xmlns="http://www.w3.org/2000/svg">
<path d="M14.1745 2.54501C13.571 2.37107 12.9427 2.7225 12.7688 3.32596L8.22505 19.229C8.05111 19.8325 8.40254 20.4608 9.006 20.6347C9.60947 20.8087 10.2378 20.4572 10.4117 19.8538L14.9555 3.95072C15.1294 3.34726 14.778 2.71895 14.1745 2.54501ZM17.0356 6.8083C16.5919 7.25203 16.5919 7.97263 17.0356 8.41636L20.2056 11.5899L17.0321 14.7634C16.5884 15.2071 16.5884 15.9277 17.0321 16.3714C17.4758 16.8152 18.1964 16.8152 18.6401 16.3714L22.6159 12.3957C23.0596 11.9519 23.0596 11.2313 22.6159 10.7876L18.6401 6.81185C18.1964 6.36813 17.4758 6.36813 17.0321 6.81185L17.0356 6.8083ZM6.14842 6.8083C5.7047 6.36458 4.98409 6.36458 4.54037 6.8083L0.564603 10.7841C0.120881 11.2278 0.120881 11.9484 0.564603 12.3921L4.54037 16.3679C4.98409 16.8116 5.7047 16.8116 6.14842 16.3679C6.59215 15.9242 6.59215 15.2036 6.14842 14.7598L2.97491 11.5899L6.14842 8.41636C6.59215 7.97263 6.59215 7.25203 6.14842 6.8083Z" fill="white"/>
</svg>
