<svg width="24" height="24" viewBox="0 0 24 24" fill="none" xmlns="http://www.w3.org/2000/svg">
<path d="M5.91586 19.719C5.91586 19.196 5.7081 18.6945 5.33829 18.3246C4.96847 17.9548 4.4669 17.7471 3.94391 17.7471C3.42091 17.7471 2.91934 17.9548 2.54953 18.3246C2.17971 18.6945 1.97195 19.196 1.97195 19.719C1.97195 20.242 2.17971 20.7436 2.54953 21.1134C2.91934 21.4832 3.42091 21.691 3.94391 21.691C4.4669 21.691 4.96847 21.4832 5.33829 21.1134C5.7081 20.7436 5.91586 20.242 5.91586 19.719Z" fill="white" stroke="white" stroke-width="1.97195" stroke-linecap="round" stroke-linejoin="round"/>
<path d="M15.7756 3.94412C15.7756 3.42113 15.5678 2.91955 15.198 2.54974C14.8282 2.17993 14.3266 1.97217 13.8036 1.97217C13.2807 1.97217 12.7791 2.17993 12.4093 2.54974C12.0395 2.91955 11.8317 3.42113 11.8317 3.94412C11.8317 4.46711 12.0395 4.96869 12.4093 5.3385C12.7791 5.70831 13.2807 5.91607 13.8036 5.91607C14.3266 5.91607 14.8282 5.70831 15.198 5.3385C15.5678 4.96869 15.7756 4.46711 15.7756 3.94412Z" fill="white" stroke="white" stroke-width="1.97195" stroke-linecap="round" stroke-linejoin="round"/>
<path d="M15.7756 19.719C15.7756 19.196 15.5678 18.6945 15.198 18.3246C14.8282 17.9548 14.3266 17.7471 13.8036 17.7471C13.2807 17.7471 12.7791 17.9548 12.4093 18.3246C12.0395 18.6945 11.8317 19.196 11.8317 19.719C11.8317 20.242 12.0395 20.7436 12.4093 21.1134C12.7791 21.4832 13.2807 21.691 13.8036 21.691C14.3266 21.691 14.8282 21.4832 15.198 21.1134C15.5678 20.7436 15.7756 20.242 15.7756 19.719Z" fill="white" stroke="white" stroke-width="1.97195" stroke-linecap="round" stroke-linejoin="round"/>
<path d="M10.8457 11.8318C10.8457 11.3088 10.6379 10.8072 10.2681 10.4374C9.89832 10.0676 9.39675 9.85986 8.87375 9.85986C8.35076 9.85986 7.84919 10.0676 7.47937 10.4374C7.10956 10.8072 6.9018 11.3088 6.9018 11.8318C6.9018 12.3548 7.10956 12.8564 7.47937 13.2262C7.84919 13.596 8.35076 13.8038 8.87375 13.8038C9.39675 13.8038 9.89832 13.596 10.2681 13.2262C10.6379 12.8564 10.8457 12.3548 10.8457 11.8318Z" fill="white" stroke="white" stroke-width="1.97195" stroke-linecap="round" stroke-linejoin="round"/>
<path d="M20.7055 11.8318C20.7055 11.3088 20.4977 10.8072 20.1279 10.4374C19.7581 10.0676 19.2565 9.85986 18.7335 9.85986C18.2105 9.85986 17.709 10.0676 17.3392 10.4374C16.9693 10.8072 16.7616 11.3088 16.7616 11.8318C16.7616 12.3548 16.9693 12.8564 17.3392 13.2262C17.709 13.596 18.2105 13.8038 18.7335 13.8038C19.2565 13.8038 19.7581 13.596 20.1279 13.2262C20.4977 12.8564 20.7055 12.3548 20.7055 11.8318Z" fill="white" stroke="white" stroke-width="1.97195" stroke-linecap="round" stroke-linejoin="round"/>
<path d="M4.98708 18.0497L7.82669 13.5083" stroke="white" stroke-width="1.97195" stroke-linecap="round" stroke-linejoin="round"/>
<path d="M9.91988 10.1586L12.7565 5.61914" stroke="white" stroke-width="1.97195" stroke-linecap="round" stroke-linejoin="round"/>
<path d="M9.92386 13.5127L12.7595 18.0482" stroke="white" stroke-width="1.97195" stroke-linecap="round" stroke-linejoin="round"/>
<path d="M14.8517 5.62061L17.6923 10.166" stroke="white" stroke-width="1.97195" stroke-linecap="round" stroke-linejoin="round"/>
</svg>
