<svg width="62" height="79" viewBox="0 0 62 79" fill="none" xmlns="http://www.w3.org/2000/svg">
<path d="M19.029 57.5494C19.029 57.5494 16.093 58.8065 20.7173 59.9216C26.3203 61.2676 29.2358 61.5313 35.6437 61.1149C35.6437 61.1149 37.1634 62.3494 39.3527 63.5259C24.576 67.8187 7.62435 59.2763 19.029 57.5494ZM18.2775 49.4876C18.2775 49.4876 14.9246 51.3854 19.5591 52.4472C25.5525 53.8187 30.3399 54.4586 38.8312 53.8798C38.8312 53.8798 39.8357 55.1838 41.5617 56.0415C23.9793 58.9206 5.63583 52.0276 18.2775 49.4876Z" fill="#5382A1"/>
<path d="M34.3742 37.9455C37.3443 42.3525 32.5365 45.3999 32.5365 45.3999C32.5365 45.3999 41.876 41.9443 38.5396 35.7712C35.4225 30.0142 32.8564 27.0283 49.6101 19.8782C49.6101 19.8782 24.3077 22.9952 34.3743 37.9453" fill="#E76F00"/>
<path d="M49.6283 67.2019C49.6283 67.2019 51.451 69.1217 47.0309 69.8911C38.6266 71.351 12.913 68.9462 6.17548 64.974C3.75352 63.5469 8.74149 62.5913 10.2906 62.4523C11.9065 62.3042 12.7983 62.4785 12.7983 62.4785C10.1989 60.1244 -6.0773 64.1562 4.20924 67.146C32.2615 75.3021 56.6412 71.4623 49.6283 67.2019ZM22.3093 41.7258C22.3093 41.7258 8.89612 43.2213 17.176 45.3788C20.6718 46.291 27.7703 47.0535 34.4381 47.3107C39.8877 47.5183 45.4225 47.2157 45.4225 47.2157C45.4225 47.2157 43.4206 47.7967 41.9293 48.5673C28.2668 50.4231 2.89784 45.6645 10.6957 43.0077C17.29 40.763 22.3095 41.7258 22.3095 41.7258L22.3093 41.7258ZM44.0849 57.6651C58.3976 52.3258 53.0018 44.8435 48.5487 45.2157C47.4572 45.3063 46.9592 45.4399 46.9592 45.4399C46.9592 45.4399 47.4303 44.8697 48.2177 44.6945C57.1781 42.7292 62.3198 55.467 43.7713 57.9843C43.7712 57.9845 44.0023 57.824 44.0849 57.6651Z" fill="#5382A1"/>
<path d="M42.4247 4.12785C42.4247 4.12785 48.9606 12.4966 33.0351 22.1753C20.2642 29.94 28.6078 36.2857 30.5223 42.6006C24.4795 35.6349 20.155 29.625 24.1177 25.0125C29.9338 18.2411 43.9772 16.3364 42.4247 4.12764" fill="#E76F00"/>
<path d="M19.701 73.9006C32.5138 76.313 52.5028 77.4626 53.7228 71.4096C53.7228 71.4096 52.5356 73.6154 42.5395 74.2554C31.2622 74.9762 17.6973 73.0648 9.79723 70.7454C9.79744 70.7454 11.2801 72.3142 19.7012 73.9006" fill="#5382A1"/>
</svg>
