<svg width="93" height="93" viewBox="0 0 93 93" fill="none" xmlns="http://www.w3.org/2000/svg">
<path d="M33.8898 12.5139C16.5582 18.8221 20.3608 25.9025 20.3608 25.9025L23.1984 33.639L39.7377 27.6193L40.5838 29.9441L17.4755 38.3548C17.4755 38.3548 5.92973 41.1406 12.2593 58.5309C18.589 75.9217 28.0446 71.7817 28.0446 71.7817L33.8216 69.6791L30.8844 61.6091C30.8844 61.6091 27.0693 52.0961 36.9062 48.5158L53.3102 42.5452C53.3102 42.5452 62.5803 39.3389 59.3025 30.3331L53.8828 15.4425C53.8828 15.4425 52.0026 5.92143 33.8898 12.5139ZM26.6654 21.0406C27.0561 20.898 27.471 20.8334 27.8862 20.8506C28.3014 20.8677 28.7089 20.9662 29.0853 21.1404C29.4617 21.3147 29.7996 21.5612 30.0797 21.866C30.3598 22.1708 30.5766 22.5277 30.7178 22.9165C30.8596 23.3051 30.9229 23.7179 30.9043 24.1314C30.8856 24.5449 30.7852 24.951 30.6089 25.3264C30.4325 25.7019 30.1837 26.0392 29.8766 26.3193C29.5696 26.5993 29.2103 26.8164 28.8193 26.9583C28.4286 27.1009 28.0138 27.1655 27.5985 27.1484C27.1833 27.1313 26.7758 27.0328 26.3994 26.8585C26.0231 26.6843 25.6851 26.4378 25.405 26.133C25.1249 25.8282 24.9081 25.4712 24.767 25.0824C24.6252 24.6939 24.5618 24.2811 24.5805 23.8675C24.5991 23.454 24.6995 23.0479 24.8759 22.6725C25.0522 22.2971 25.301 21.9597 25.6081 21.6797C25.9152 21.3997 26.2745 21.1825 26.6654 21.0406Z" fill="url(#paint0_linear_7_5145)"/>
<path d="M58.9646 79.8747C76.2962 73.5665 72.4936 66.4861 72.4936 66.4861L69.6561 58.7498L53.1166 64.7697L52.2704 62.4449L75.3788 54.0341C75.3788 54.0341 86.9245 51.2483 80.5948 33.8575C74.2651 16.4669 64.8095 20.6069 64.8095 20.6069L59.0325 22.7096L61.9697 30.7793C61.9697 30.7793 65.7848 40.2923 55.9478 43.8726L39.5438 49.8432C39.5438 49.8432 30.2737 53.0495 33.5517 62.0556L38.9715 76.9464C38.9715 76.9464 40.8519 86.4672 58.9643 79.8748L58.9646 79.8747ZM66.1892 71.3485C65.7985 71.4911 65.3837 71.5557 64.9684 71.5386C64.5532 71.5215 64.1457 71.423 63.7693 71.2487C63.393 71.0745 63.055 70.8279 62.7749 70.5232C62.4948 70.2184 62.278 69.8614 62.1369 69.4726C61.995 69.0841 61.9316 68.6712 61.9503 68.2577C61.9689 67.8441 62.0693 67.438 62.2456 67.0626C62.4219 66.6871 62.6708 66.3497 62.9778 66.0697C63.2849 65.7896 63.6442 65.5724 64.0352 65.4305C64.4259 65.2879 64.8408 65.2233 65.256 65.2405C65.6712 65.2576 66.0787 65.3561 66.4551 65.5303C66.8315 65.7046 67.1694 65.9511 67.4495 66.2559C67.7296 66.5607 67.9464 66.9176 68.0876 67.3064C68.2294 67.695 68.2927 68.1078 68.2741 68.5213C68.2554 68.9349 68.155 69.3409 67.9787 69.7164C67.8023 70.0918 67.5535 70.4291 67.2464 70.7092C66.9394 70.9892 66.5801 71.2064 66.1891 71.3483L66.1892 71.3485Z" fill="url(#paint1_linear_7_5145)"/>
<defs>
<linearGradient id="paint0_linear_7_5145" x1="8.7719" y1="28.5356" x2="54.6105" y2="49.7863" gradientUnits="userSpaceOnUse">
<stop stop-color="#387EB8"/>
<stop offset="1" stop-color="#366994"/>
</linearGradient>
<linearGradient id="paint1_linear_7_5145" x1="37.3243" y1="42.3672" x2="85.9712" y2="63.5696" gradientUnits="userSpaceOnUse">
<stop stop-color="#FFE052"/>
<stop offset="1" stop-color="#FFC331"/>
</linearGradient>
</defs>
</svg>
