<svg width="91" height="94" viewBox="0 0 91 94" fill="none" xmlns="http://www.w3.org/2000/svg">
<path d="M43.5664 53.1801C46.9989 54.0359 50.4713 51.9625 51.3224 48.5492C52.1734 45.1358 50.0808 41.6749 46.6484 40.8191C43.2159 39.9633 39.7434 42.0366 38.8924 45.45C38.0413 48.8634 40.134 52.3242 43.5664 53.1801Z" fill="#61DAFB"/>
<path fill-rule="evenodd" clip-rule="evenodd" d="M16.6953 36.4608C14.9704 37.3747 14.2321 38.3623 14.0118 39.2459C13.7915 40.1296 13.9797 41.3482 15.0736 42.9648C16.1668 44.5804 18.0224 46.362 20.6188 48.166C25.7972 51.7639 33.5044 55.1622 42.512 57.408C51.5196 59.6539 59.92 60.2717 66.1814 59.526C69.3207 59.1521 71.7956 58.4502 73.5193 57.537C75.2441 56.6231 75.9824 55.6355 76.2027 54.7519C76.423 53.8682 76.2348 52.6496 75.1409 51.033C74.0477 49.4174 72.1921 47.6358 69.5957 45.8318C64.4174 42.2339 56.7102 38.8356 47.7025 36.5898C38.6949 34.3439 30.2945 33.7261 24.0331 34.4718C20.8938 34.8457 18.4189 35.5476 16.6953 36.4608ZM23.4839 29.8598C30.435 29.0319 39.4158 29.7369 48.8262 32.0831C58.2366 34.4294 66.497 38.0232 72.2459 42.0175C75.1132 44.0097 77.4611 46.1742 78.9876 48.43C80.5133 50.6847 81.3609 53.2625 80.7094 55.8755C80.0579 58.4885 78.0993 60.3666 75.6936 61.6412C73.2868 62.9163 70.1976 63.7251 66.7306 64.138C59.7795 64.9659 50.7988 64.2609 41.3883 61.9147C31.9779 59.5684 23.7175 55.9746 17.9686 51.9803C15.1013 49.9881 12.7534 47.8236 11.227 45.5678C9.70124 43.3131 8.85366 40.7353 9.50515 38.1223C10.1566 35.5093 12.1152 33.6311 14.5209 32.3566C16.9277 31.0815 20.017 30.2726 23.4839 29.8598Z" fill="#61DAFB"/>
<path fill-rule="evenodd" clip-rule="evenodd" d="M40.0251 17.2788C38.3656 16.2485 37.1298 16.0994 36.2391 16.3524C35.3485 16.6055 34.3802 17.3809 33.5238 19.1261C32.6673 20.8714 32.0492 23.3556 31.7834 26.489C31.2534 32.7389 32.1664 41.0688 34.7353 49.9466C37.3042 58.8243 40.9843 66.368 44.776 71.3899C46.677 73.9076 48.5297 75.6898 50.1893 76.7202C51.8488 77.7504 53.0846 77.8996 53.9753 77.6465C54.8659 77.3935 55.8342 76.618 56.6906 74.8729C57.5471 73.1276 58.1652 70.6434 58.431 67.51C58.961 61.2601 58.048 52.9301 55.4791 44.0524C52.9102 35.1747 49.2301 27.631 45.4383 22.6091C43.5374 20.0913 41.6847 18.3092 40.0251 17.2788ZM49.1491 19.8282C53.363 25.4093 57.2615 33.5028 59.9469 42.7829C62.6322 52.0631 63.6541 60.9739 63.065 67.9198C62.7711 71.3843 62.0662 74.4868 60.8692 76.9259C59.6722 79.3652 57.8566 81.3721 55.2663 82.1081C52.6759 82.8441 50.0631 82.0956 47.7435 80.6555C45.424 79.2155 43.1672 76.9546 41.0653 74.1708C36.8514 68.5896 32.9528 60.4962 30.2675 51.216C27.5822 41.9359 26.5603 33.025 27.1494 26.0792C27.4433 22.6147 28.1482 19.5122 29.3452 17.073C30.5422 14.6337 32.3577 12.6269 34.9481 11.8909C37.5385 11.1548 40.1513 11.9034 42.4709 13.3435C44.7903 14.7835 47.0472 17.0444 49.1491 19.8282Z" fill="#61DAFB"/>
<path fill-rule="evenodd" clip-rule="evenodd" d="M68.4206 27.8262C68.4838 25.8832 67.9929 24.744 67.3253 24.1024C66.6577 23.4609 65.4965 23.0124 63.5476 23.143C61.5985 23.2736 59.126 23.9773 56.2655 25.3079C50.56 27.9619 43.7691 32.8949 37.333 39.5274C30.897 46.16 26.1802 53.0862 23.714 58.8535C22.4776 61.7448 21.8572 64.2284 21.794 66.1715C21.7309 68.1145 22.2218 69.2537 22.8894 69.8953C23.5569 70.5369 24.7181 70.9853 26.6671 70.8548C28.6162 70.7241 31.0886 70.0204 33.9491 68.6898C39.6546 66.0358 46.4456 61.1029 52.8816 54.4703C59.3176 47.8377 64.0345 40.9115 66.5006 35.1443C67.737 32.2529 68.3575 29.7693 68.4206 27.8262ZM70.7846 36.958C68.0438 43.3674 62.9582 50.7554 56.2304 57.6887C49.5026 64.6219 42.2608 69.9377 35.92 72.8873C32.7572 74.3584 29.7031 75.2951 26.9791 75.4777C24.2549 75.6602 21.5965 75.0945 19.6549 73.2285C17.7133 71.3626 17.0524 68.7383 17.1407 66.0225C17.2289 63.3069 18.063 60.2367 19.4301 57.0397C22.1708 50.6303 27.2564 43.2423 33.9842 36.3091C40.712 29.3758 47.9538 24.06 54.2947 21.1105C57.4574 19.6393 60.5116 18.7026 63.2356 18.52C65.9597 18.3375 68.6181 18.9032 70.5598 20.7692C72.5014 22.6352 73.1622 25.2594 73.074 27.9752C72.9857 30.6908 72.1516 33.761 70.7846 36.958Z" fill="#61DAFB"/>
</svg>
