<svg width="102" height="208" viewBox="0 0 102 208" fill="none" xmlns="http://www.w3.org/2000/svg">
<mask id="path-1-inside-1_34_4" fill="white">
<path d="M51.1403 0.000976562C78.1885 20.0748 95.7184 52.2507 95.7184 88.5215C95.7183 124.792 78.1881 156.966 51.1403 177.04C24.093 156.966 6.56426 124.791 6.56412 88.5215C6.56412 52.2512 24.0926 20.0748 51.1403 0.000976562Z"/>
</mask>
<path d="M51.1403 0.000976562L57.0999 -8.02919L51.1402 -12.4521L45.1806 -8.02912L51.1403 0.000976562ZM95.7184 88.5215L105.718 88.5215V88.5215H95.7184ZM51.1403 177.04L45.1806 185.07L51.1402 189.493L57.0999 185.07L51.1403 177.04ZM6.56412 88.5215L-3.43588 88.5215L-3.43588 88.5215L6.56412 88.5215ZM51.1403 0.000976562L45.1807 8.03114C69.7969 26.3 85.7184 55.5503 85.7184 88.5215H95.7184H105.718C105.718 48.9512 86.5801 13.8495 57.0999 -8.02919L51.1403 0.000976562ZM95.7184 88.5215L85.7184 88.5214C85.7183 121.492 69.7966 150.741 45.1807 169.01L51.1403 177.04L57.0999 185.07C86.5796 163.192 105.718 128.092 105.718 88.5215L95.7184 88.5215ZM51.1403 177.04L57.1 169.01C32.4848 150.741 16.5643 121.492 16.5641 88.5214L6.56412 88.5215L-3.43588 88.5215C-3.43572 128.091 15.7013 163.191 45.1806 185.07L51.1403 177.04ZM6.56412 88.5215H16.5641C16.5641 55.5504 32.4845 26.2998 57.0999 8.03107L51.1403 0.000976562L45.1806 -8.02912C15.7007 13.8498 -3.43588 48.9519 -3.43588 88.5215H6.56412Z" fill="#CFB0FF" mask="url(#path-1-inside-1_34_4)"/>
<path d="M51.141 91.6489C58.4418 97.0673 63.1732 105.752 63.1732 115.542C63.1731 125.332 58.4413 134.016 51.141 139.434C43.8407 134.016 39.1088 125.332 39.1087 115.542C39.1087 105.752 43.8402 97.0673 51.141 91.6489Z" fill="#CFB0FF"/>
<path d="M5 200.081V144.712C13.0017 137.246 17.488 138.329 25.4897 144.712L50.2026 173.179C33.5353 186.726 23.5677 192.4 5 200.081Z" stroke="#CFB0FF" stroke-width="10"/>
<path d="M96.5 200.081V144.712C88.4983 137.246 84.012 138.329 76.0103 144.712L51.2974 173.179C67.9647 186.726 77.9323 192.4 96.5 200.081Z" stroke="#CFB0FF" stroke-width="10"/>
</svg>
