<svg width="276" height="163" viewBox="0 0 276 163" fill="none" xmlns="http://www.w3.org/2000/svg">
<path d="M54.6354 17.1323C55.1233 17.1886 55.3389 17.3967 55.6671 17.748C56.0049 18.0994 56.3426 18.4328 56.7155 18.7465C58.3134 20.1349 59.6676 21.6647 60.8924 23.3893C60.947 23.4661 61.0017 23.5428 61.058 23.6219C63.1876 26.6602 64.4958 30.0333 65.4194 33.5994C66.2342 36.7314 67.2404 39.9007 69.1463 42.5597C69.2391 42.6902 69.332 42.8206 69.4276 42.955C70.0817 43.8496 70.7823 44.6829 71.5426 45.4886C71.6322 45.5867 71.7218 45.6849 71.8141 45.786C73.0265 47.0666 74.4527 48.0189 76.0024 48.8417C77.087 49.4228 77.8695 49.9599 78.3238 51.1465C78.5891 52.107 78.5408 52.9878 78.0659 53.8756C77.7074 54.374 77.3214 54.7279 76.8344 55.0987C75.8669 55.8774 74.826 56.8549 74.6046 58.1357C74.5323 59.128 74.9387 59.8967 75.5364 60.6651C76.3037 61.4596 77.1843 62.1329 78.0659 62.7952C77.9585 63.508 77.8202 64.204 77.6197 64.8966C77.5879 65.0082 77.5561 65.1198 77.5233 65.2347C77.4585 65.4589 77.3915 65.6824 77.3221 65.9051C77.131 66.5411 77.1309 66.5411 77.2936 67.1676C77.3727 67.2623 77.4519 67.357 77.5334 67.4546C77.5927 67.5387 77.6521 67.6228 77.7133 67.7095C77.8269 67.8621 77.9406 68.0146 78.0544 68.1671C78.4203 68.7225 78.4062 69.3449 78.3321 69.9841C78.1091 70.4606 77.8654 70.7211 77.4819 71.0808C76.7136 71.802 76.1602 72.3631 76.069 73.4454C76.0705 74.4845 76.5025 75.3122 77.0114 76.1892C77.6386 77.2759 77.7884 78.3243 77.6665 79.5693C77.5529 79.9822 77.3869 80.2904 77.134 80.6343C77.0786 80.7115 77.0231 80.7887 76.966 80.8683C74.5953 83.6435 69.5734 83.6837 66.2763 83.9869C66.1273 84.0007 65.9783 84.0146 65.8248 84.0288C65.0781 84.0977 64.3312 84.1643 63.5839 84.2269C61.0301 84.4494 58.4521 84.81 56.0249 85.6682C55.8953 85.7125 55.7658 85.7567 55.6323 85.8024C54.4951 86.2029 53.4262 86.7079 52.3722 87.2907C52.6783 96.5642 56.4739 106.364 62.5415 113.395C62.6982 113.581 62.851 113.771 63.0013 113.962C63.8282 115.008 64.7462 115.943 65.6926 116.88C65.9603 117.145 66.2269 117.412 66.4934 117.678C67.618 118.802 67.618 118.802 68.8046 119.86C69.1233 120.135 69.4127 120.438 69.7074 120.739C69.9578 120.984 70.2189 121.211 70.4859 121.438C70.9832 121.866 71.3944 122.328 71.8089 122.836C67.2249 121.527 62.7693 119.168 59.1617 116.046C59.0034 115.91 59.0034 115.91 58.8419 115.771C52.2754 109.992 49.6151 102.279 48.0887 93.8649C47.9794 93.2674 47.8486 92.6753 47.7127 92.0833C47.6249 92.0833 47.537 92.0833 47.4465 92.0833C47.1183 93.5276 47.3389 95.0915 47.4158 96.5613C47.4268 96.7753 47.4378 96.9893 47.4487 97.2034C47.4718 97.6517 47.4953 98.1001 47.5189 98.5484C47.5426 98.9982 47.5657 99.4479 47.5882 99.8978C47.7045 102.219 47.8352 104.537 48.045 106.852C48.0681 107.109 48.0681 107.109 48.0917 107.371C48.8274 115.132 51.1267 122.454 56.0998 128.56C56.1661 128.642 56.2325 128.724 56.3009 128.808C57.7165 130.538 59.267 132.104 61.0255 133.486C61.1682 133.605 61.3105 133.724 61.4525 133.844C63.6021 135.638 66.0023 137.117 68.4807 138.412C68.5685 138.458 68.6564 138.504 68.7469 138.551C69.3626 138.872 69.9843 139.178 70.6107 139.477C70.7077 139.523 70.8046 139.57 70.9045 139.618C74.4793 141.315 78.2984 142.643 82.1624 143.509C82.2603 143.541 82.3582 143.572 82.4591 143.604C82.503 143.692 82.547 143.779 82.5922 143.87C81.2168 144.328 79.5606 143.898 78.1657 143.654C78.0083 143.627 78.0083 143.627 77.8477 143.599C70.1867 142.284 62.8824 139.554 56.7654 134.684C56.6425 134.587 56.5197 134.49 56.3931 134.39C54.4693 132.847 52.6025 131.129 51.068 129.194C50.7625 128.811 50.4447 128.441 50.1257 128.069C43.7784 120.447 41.2212 110.594 39.7251 101.003C39.116 102.619 38.6166 104.238 38.2606 105.929C38.2385 106.032 38.2163 106.136 38.1934 106.242C37.4651 109.838 37.5159 114.088 38.3938 117.644C38.4216 117.761 38.4494 117.879 38.4781 118C39.3128 121.448 40.881 124.678 43.0015 127.513C43.1644 127.732 43.3224 127.955 43.4797 128.178C44.167 129.101 44.9735 129.678 45.9238 130.299C46.5528 130.711 47.1586 131.15 47.7626 131.597C47.8688 131.676 47.9749 131.754 48.0842 131.835C48.8116 132.375 49.5284 132.928 50.2422 133.486C50.4417 133.641 50.6412 133.795 50.8407 133.949C51.2445 134.263 51.6413 134.583 52.0357 134.907C53.6567 136.209 55.325 136.866 57.2979 137.48C57.5952 137.573 57.8922 137.667 58.1887 137.762C58.321 137.803 58.4532 137.845 58.5895 137.888C58.8955 138.012 58.8955 138.012 59.0286 138.279C58.7706 138.24 58.5127 138.201 58.2548 138.162C58.1111 138.141 57.9675 138.119 57.8195 138.097C57.1557 137.989 56.4947 137.868 55.8335 137.746C58.318 139.42 60.7802 141.033 63.4531 142.396C63.5792 142.461 63.7053 142.525 63.8352 142.592C63.948 142.649 64.0608 142.706 64.177 142.765C64.4801 142.934 64.7472 143.123 65.0193 143.338C64.5357 143.255 64.1206 143.122 63.6709 142.927C61.9386 142.192 60.2003 141.529 58.4129 140.941C58.2614 140.891 58.2614 140.891 58.1069 140.84C57.202 140.542 56.2961 140.248 55.3886 139.957C50.5681 138.416 46.0837 136.287 41.5728 134.004C36.1315 131.236 36.1315 131.236 30.273 129.625C30.129 129.601 29.985 129.577 29.8367 129.553C27.6172 129.282 25.4838 129.498 23.4835 130.557C23.3774 130.613 23.2713 130.669 23.1621 130.726C20.9858 131.949 19.5452 133.854 18.8573 136.24C18.333 138.328 18.4795 140.385 19.5177 142.305C20.2883 143.491 21.4565 144.479 22.8464 144.82C25.5687 145.375 28.4497 144.704 30.7472 143.188C32.3715 142.037 33.9227 140.449 34.4795 138.48C34.6804 137.226 34.6597 136.175 34.0006 135.084C34.0006 134.908 34.0006 134.732 34.0006 134.551C34.8158 134.73 35.4286 135.015 35.8945 135.735C36.5849 137.034 36.5015 138.404 36.1519 139.798C35.1468 142.908 32.7854 145.494 29.9131 147.007C27.1616 148.383 24.2332 149.036 21.2203 148.13C19.9652 147.693 18.9226 147.102 17.8921 146.266C17.7601 146.163 17.6282 146.06 17.4922 145.954C17.0743 145.603 16.7489 145.197 16.436 144.752C16.3791 144.671 16.3222 144.59 16.2635 144.507C14.4295 141.82 13.8652 138.703 14.3902 135.493C14.5 134.945 14.6515 134.415 14.8301 133.885C14.858 133.802 14.8858 133.718 14.9145 133.632C16.1912 129.912 18.6895 127.008 22.2205 125.25C26.0813 123.412 30.4629 123.119 34.5331 124.433C34.489 124.375 34.4449 124.316 34.3995 124.256C31.9954 121.037 29.9918 117.535 28.5423 113.783C28.4941 113.66 28.446 113.537 28.3963 113.41C27.2441 110.44 26.3939 107.366 26.0129 104.198C26.0005 104.108 25.9882 104.018 25.9754 103.925C25.5936 100.789 25.6849 97.3085 26.2791 94.2133C26.3049 94.0783 26.3306 93.9433 26.3571 93.8042C26.9956 90.5756 28.0157 87.4461 29.4742 84.495C29.5373 84.3664 29.6005 84.2378 29.6655 84.1052C30.9318 81.5459 32.3877 79.1291 34.0744 76.8251C34.3178 76.4915 34.5523 76.153 34.7837 75.811C34.8487 75.7151 34.9137 75.6191 34.9807 75.5203C35.1054 75.3356 35.2295 75.1505 35.353 74.965C35.41 74.8807 35.4671 74.7964 35.5258 74.7096C35.5752 74.6357 35.6246 74.5618 35.6755 74.4857C35.8643 74.2442 35.8643 74.2442 36.1848 73.9282C36.5235 73.5851 36.7891 73.2366 37.0667 72.8432C37.7589 71.9067 38.5586 71.1101 39.3922 70.3003C39.611 70.0861 39.8295 69.8717 40.0477 69.657C40.2425 69.4654 40.4381 69.2747 40.6338 69.0841C40.9268 68.8123 40.9268 68.8123 41.0563 68.5197C41.1442 68.5197 41.2321 68.5197 41.3226 68.5197C41.3767 68.4006 41.3767 68.4006 41.4318 68.279C41.5871 67.9904 41.7387 67.8058 41.9709 67.577C42.0478 67.5005 42.1248 67.424 42.204 67.3452C42.2871 67.2639 42.3702 67.1827 42.4557 67.0989C42.5848 66.9709 42.5848 66.9709 42.7165 66.8403C42.9918 66.5674 43.2679 66.2954 43.5442 66.0235C43.8179 65.7534 44.0915 65.4832 44.3647 65.2125C44.5344 65.0444 44.7045 64.8766 44.875 64.7092C45.3742 64.2156 45.845 63.705 46.3026 63.1725C46.6449 62.7782 47.0051 62.4011 47.3633 62.0214C48.0927 61.241 48.7783 60.4363 49.4434 59.6001C49.572 59.4421 49.7008 59.2842 49.8298 59.1264C50.6268 58.1472 51.3859 57.157 52.0849 56.1045C52.1915 55.944 52.2989 55.784 52.4068 55.6244C55.3058 51.3307 57.4135 46.6031 58.363 41.4947C58.3846 41.3854 58.4062 41.2761 58.4284 41.1635C59.4293 35.9236 58.7962 30.2241 57.4311 25.12C57.3962 24.9897 57.3614 24.8594 57.3256 24.7252C56.8086 22.8341 56.1134 21.0415 55.3326 19.245C55.0493 18.5879 54.776 17.9266 54.5022 17.2655C54.5462 17.2215 54.5901 17.1776 54.6354 17.1323ZM33.8674 87.8232C32.9987 88.9135 32.2938 90.0216 31.6625 91.2679C31.6197 91.3515 31.5769 91.4351 31.5328 91.5213C28.6017 97.2693 27.7883 103.543 29.7697 109.737C29.804 109.842 29.8383 109.947 29.8736 110.056C29.9196 110.197 29.9196 110.197 29.9666 110.342C31.472 114.868 34.3536 118.643 37.5617 122.095C37.6418 122.182 37.7219 122.268 37.8045 122.358C38.4752 123.071 39.1744 123.756 39.9913 124.3C39.8152 123.823 39.6033 123.418 39.3231 122.993C39.2427 122.871 39.1623 122.749 39.0795 122.623C38.9933 122.493 38.907 122.362 38.8181 122.228C38.729 122.093 38.6399 121.957 38.5481 121.817C38.1954 121.28 37.8414 120.744 37.4863 120.208C36.4737 118.68 35.5117 117.142 34.6662 115.514C34.6198 115.425 34.5734 115.335 34.5255 115.244C32.4295 111.154 31.2368 106.526 31.0717 101.935C31.0663 101.793 31.0608 101.651 31.0551 101.505C30.9878 97.9803 31.6245 94.4666 32.8024 91.1514C32.8377 91.0519 32.8729 90.9525 32.9093 90.85C33.4887 89.2324 33.4887 89.2324 33.8326 88.5871C34.0511 88.2223 34.0511 88.2223 33.8674 87.8232Z" fill="#F9A12C"/>
<path d="M42.2536 27.6492C42.3861 27.7599 42.5185 27.8706 42.655 27.9847C44.5213 29.5952 46.2002 31.7854 46.9131 34.1725C46.9131 34.3043 46.9131 34.4361 46.9131 34.5719C41.6718 34.7122 36.6836 33.5064 32.5352 30.1787C32.4443 30.1081 32.3533 30.0376 32.2596 29.9649C32.0791 29.8218 31.9063 29.6687 31.7365 29.513C31.7365 29.4252 31.7365 29.3373 31.7365 29.2468C31.6486 29.2468 31.5608 29.2468 31.4702 29.2468C30.4188 28.1756 28.9408 26.1473 28.9408 24.5873C29.1401 24.5224 29.3399 24.4589 29.5399 24.3959C29.6511 24.3604 29.7623 24.3249 29.8769 24.2883C34.1382 23.2061 38.9827 24.916 42.2536 27.6492Z" fill="#F9A12C"/>
<path d="M45.7163 38.2996C45.2044 39.5493 43.4286 40.1881 42.255 40.6959C39.1264 41.9527 35.5415 42.1924 32.2704 41.3615C32.1822 41.3394 32.094 41.3172 32.0031 41.2944C29.4424 40.6271 27.1245 39.3278 25.2146 37.5008C26.6996 35.5995 28.8846 34.7377 31.2291 34.3967C36.1932 33.7968 41.7096 35.3105 45.7163 38.2996Z" fill="#F9A12C"/>
<path d="M37.0615 14.2036C37.8117 14.2573 38.4019 14.4777 39.0751 14.8027C39.1741 14.8502 39.2731 14.8977 39.3751 14.9466C43.7353 17.0979 47.019 21.261 48.611 25.8064C49.1903 27.5568 49.5025 29.2596 49.4424 31.1108C48.801 31.0377 48.2905 30.8415 47.7284 30.5367C47.6426 30.4904 47.5567 30.444 47.4682 30.3962C45.778 29.4518 44.3074 28.1892 42.9192 26.8508C42.8092 26.7492 42.6992 26.6476 42.5858 26.5429C39.8301 23.9243 37.0702 19.86 36.8832 15.9405C36.873 15.403 36.8819 14.8725 36.9284 14.3367C36.9724 14.2928 37.0163 14.2489 37.0615 14.2036Z" fill="#F9A12C"/>
<path d="M46.1133 42.2934C45.9271 43.9812 43.7117 45.7889 42.4481 46.8078C38.5895 49.7967 33.7342 51.3987 28.8446 50.9107C26.9293 50.667 26.9293 50.667 26.5435 50.2811C26.9946 49.2157 27.5926 48.4345 28.4072 47.6185C28.5058 47.5185 28.6043 47.4184 28.7057 47.3154C33.1037 43.1025 40.2647 41.772 46.1133 42.2934Z" fill="#F9A12C"/>
<path d="M54.8145 33.7031C56.2585 34.7525 57.5035 36.2307 57.8297 38.0334C57.9144 39.0834 57.9181 39.952 57.2972 40.8291C57.2422 40.9094 57.1873 40.9897 57.1307 41.0724C56.1847 42.3087 54.5424 42.984 53.0371 43.2254C51.4525 43.3474 49.8688 43.1758 48.6137 42.1193C47.6059 41.1581 46.8604 40.1206 46.7483 38.6949C46.7144 37.1075 47.0033 35.7541 48.1113 34.5721C49.9035 32.7613 52.6012 32.317 54.8145 33.7031Z" fill="#F9A12C"/>
<path d="M51.5744 16.8662C52.0362 17.2339 52.2152 17.7496 52.4314 18.2807C52.4721 18.38 52.5128 18.4794 52.5547 18.5817C54.0828 22.4502 53.8644 26.525 52.24 30.3121C52.1536 30.4908 52.066 30.6689 51.9738 30.8446C51.6214 30.711 51.4651 30.6164 51.2624 30.2929C49.6341 26.5357 49.2363 22.2017 50.7304 18.328C50.9674 17.8008 51.2431 17.3395 51.5744 16.8662Z" fill="#F9A12C"/>
<path d="M47.9784 44.0239C47.8523 47.7625 46.1694 51.202 43.4521 53.7423C42.5129 54.5718 41.5247 55.329 40.3901 55.8723C39.9471 53.5015 41.2397 50.8786 42.5202 48.9497C43.5414 47.484 46.009 44.0239 47.9784 44.0239Z" fill="#F9A12C"/>
<path d="M65.2839 143.471C65.5502 143.604 65.5502 143.604 65.5502 143.604L65.2839 143.471Z" fill="#F9A12C"/>
<path d="M65.0201 143.337C65.2864 143.471 65.2864 143.471 65.2864 143.471L65.0201 143.337Z" fill="#F9A12C"/>
<path d="M24.6802 132.954C24.9464 133.087 24.9464 133.087 24.9464 133.087L24.6802 132.954Z" fill="#F9A12C"/>
<path d="M126.283 72.6454C120.958 67.4268 116.644 62.0484 114.727 58.5339C113.715 56.7233 113.236 55.1258 113.236 53.7945C113.236 51.9307 114.301 50.919 116.112 50.919C117.656 50.919 119.094 51.8775 120.478 53.475C122.395 52.1437 123.034 49.7474 123.034 47.4044C123.034 45.4341 122.608 43.6768 122.129 42.5585H111V38.7777H137.412V42.5585H126.496C127.081 44.1028 127.348 45.8068 127.348 47.9369C127.348 50.3864 126.762 52.4632 125.537 54.2205C127.774 55.0193 129.904 55.3388 132.194 55.3388C134.004 55.3388 135.602 55.179 137.519 54.8595L137.625 58.6404C135.815 59.0664 134.27 59.1729 132.194 59.1729C129.425 59.1729 125.91 58.5339 122.981 56.9363C121.916 57.6818 120.585 58.3741 119.094 58.8534C121.65 62.3147 125.271 65.8293 129.531 69.7699L126.283 72.6454ZM137.075 68.2256L134.785 64.3915L149.003 57.3623C146.021 53.1023 144.264 51.6645 141.335 51.6645C139.418 51.6645 137.235 52.3035 134.626 53.6348L133.135 49.6409C135.584 48.4162 138.3 47.6174 141.229 47.6174C145.436 47.6174 148.151 49.4279 152.039 54.9128V42.5585H131.697V38.7777H161.837V42.5585H156.352V71.8999H152.039V60.0249L137.075 68.2256ZM170.131 42.5585V71.8999H165.818V42.5585H161.079V38.7777H165.711C164.114 31.4823 161.664 27.9677 158.043 27.9677C155.008 27.9677 153.677 29.7783 153.677 32.7071C153.677 34.7839 154.422 36.8607 155.487 39.1505H151.227C150.002 36.6476 149.363 34.1448 149.363 31.9083C149.363 27.382 152.292 24.1869 157.351 24.1869C164.54 24.1869 167.682 29.3522 169.705 38.7777H175.616V42.5585H170.131Z" fill="white"/>
<path d="M135.346 116.301C135.346 118.154 134.707 119.703 133.429 120.949C132.151 122.164 130.521 122.771 128.541 122.771H121.16C119.179 122.771 117.55 122.164 116.271 120.949C114.993 119.703 114.354 118.154 114.354 116.301V114.527H119.147V116.54C119.147 117.02 119.307 117.435 119.626 117.786C119.978 118.138 120.377 118.314 120.824 118.314H128.876C129.323 118.314 129.707 118.138 130.026 117.786C130.378 117.435 130.553 117.02 130.553 116.54V112.946C130.553 112.403 130.362 111.987 129.978 111.7C129.595 111.38 129.036 111.173 128.301 111.077C127.566 110.981 126.847 110.933 126.144 110.933C125.473 110.901 124.627 110.901 123.604 110.933C122.614 110.965 121.863 110.981 121.352 110.981C119.371 110.917 117.741 110.278 116.463 109.064C115.185 107.85 114.546 106.316 114.546 104.463V101.348C114.546 99.4946 115.185 97.961 116.463 96.7468C117.741 95.5008 119.371 94.8777 121.352 94.8777H128.157C130.138 94.8777 131.768 95.5008 133.046 96.7468C134.324 97.961 134.963 99.4946 134.963 101.348V103.169H130.17V101.108C130.17 100.629 129.994 100.213 129.643 99.862C129.323 99.5106 128.94 99.3348 128.493 99.3348H121.016C120.569 99.3348 120.169 99.5106 119.818 99.862C119.499 100.213 119.339 100.629 119.339 101.108V104.75C119.339 105.294 119.53 105.725 119.914 106.044C120.297 106.332 120.856 106.524 121.591 106.62C122.358 106.715 123.061 106.779 123.7 106.811C124.371 106.811 125.218 106.795 126.24 106.763C127.294 106.699 128.061 106.668 128.541 106.668C130.49 106.731 132.103 107.37 133.381 108.585C134.691 109.799 135.346 111.332 135.346 113.185V116.301ZM162.622 122.675H157.829V108.632C157.829 108.217 157.654 107.85 157.302 107.53C156.983 107.211 156.599 107.051 156.152 107.051H152.989C152.446 107.051 152.062 107.099 151.839 107.195C151.615 107.291 151.295 107.53 150.88 107.914L147.334 110.885V122.675H142.541V94.8777H147.334V105.326C148.036 104.687 148.548 104.239 148.867 103.984C149.219 103.696 149.73 103.409 150.401 103.121C151.072 102.801 151.759 102.642 152.462 102.642H156.008C157.957 102.61 159.539 103.185 160.753 104.367C161.999 105.517 162.622 107.035 162.622 108.92V122.675ZM179.209 99.7182H174.129V94.8777H179.209V99.7182ZM183.235 122.675H170.295V118.409H174.321V106.955H170.295V102.642H179.113V118.409H183.235V122.675ZM209.985 115.198H194.745V116.828C194.745 117.243 194.904 117.611 195.224 117.93C195.575 118.25 195.975 118.409 196.422 118.409H207.445V122.675H196.758C194.777 122.675 193.147 122.084 191.869 120.902C190.591 119.687 189.952 118.154 189.952 116.301V109.399C189.952 107.546 190.591 106.029 191.869 104.846C193.147 103.632 194.777 103.025 196.758 103.025H203.18C205.161 103.025 206.79 103.632 208.068 104.846C209.346 106.029 209.985 107.546 209.985 109.399V115.198ZM205.193 111.029V109.016C205.193 108.569 205.033 108.201 204.713 107.914C204.394 107.594 203.994 107.434 203.515 107.434H196.422C195.975 107.434 195.575 107.594 195.224 107.914C194.904 108.233 194.745 108.601 194.745 109.016V111.029H205.193ZM230.599 122.675H217.659V118.409H221.733V99.1431H217.659V94.8777H226.526V118.409H230.599V122.675ZM257.403 122.675H243.888C241.907 122.675 240.278 122.068 239 120.854C237.722 119.608 237.083 118.058 237.083 116.205V109.112C237.083 107.259 237.722 105.709 239 104.463C240.31 103.217 241.939 102.61 243.888 102.642H247.578C248.281 102.642 248.952 102.786 249.591 103.073C250.262 103.361 250.773 103.648 251.125 103.936C251.476 104.223 251.972 104.671 252.611 105.278V94.8777H257.403V122.675ZM252.611 118.409V110.837L249.208 107.866C248.76 107.45 248.425 107.211 248.201 107.147C248.01 107.051 247.626 107.003 247.051 107.003H243.553C243.105 107.003 242.706 107.163 242.354 107.482C242.035 107.802 241.875 108.169 241.875 108.585V116.78C241.875 117.227 242.035 117.611 242.354 117.93C242.706 118.25 243.105 118.409 243.553 118.409H252.611Z" fill="white"/>
</svg>
