<svg width="222" height="222" viewBox="0 0 222 222" fill="none" xmlns="http://www.w3.org/2000/svg">
<path d="M92.5666 19.4598C79.6014 15.2629 65.5079 21.1006 59.308 33.2357L51.8546 47.8245C50.969 49.558 49.5592 50.9678 47.8258 51.8534L33.2369 59.3068C21.1018 65.5066 15.2642 79.6002 19.461 92.5648L24.5065 108.151C25.106 110.003 25.106 111.997 24.5065 113.849L19.461 129.435C15.2642 142.4 21.1019 156.493 33.2369 162.693L47.8258 170.146C49.5592 171.033 50.969 172.442 51.8546 174.176L59.3081 188.764C65.5079 200.899 79.6014 206.737 92.5666 202.54L108.153 197.495C110.005 196.896 111.998 196.896 113.85 197.495L129.436 202.54C142.401 206.737 156.494 200.899 162.695 188.764L170.148 174.176C171.033 172.442 172.443 171.033 174.177 170.146L188.766 162.693C200.901 156.493 206.738 142.4 202.542 129.435L197.496 113.849C196.896 111.997 196.896 110.003 197.496 108.151L202.542 92.5648C206.738 79.6001 200.901 65.5066 188.766 59.3068L174.177 51.8534C172.443 50.9678 171.033 49.5579 170.148 47.8245L162.695 33.2357C156.494 21.1006 142.401 15.2629 129.436 19.4598L113.85 24.5052C111.998 25.1047 110.005 25.1047 108.153 24.5052L92.5666 19.4598ZM75.7826 41.6525C77.8491 37.6074 82.547 35.6616 86.8685 37.0605L102.455 42.106C108.01 43.9045 113.992 43.9045 119.548 42.106L135.134 37.0605C139.456 35.6616 144.153 37.6074 146.22 41.6525L153.673 56.2414C156.331 61.4415 160.56 65.671 165.76 68.3278L180.349 75.7813C184.394 77.8479 186.339 82.5457 184.941 86.8673L179.895 102.454C178.097 108.01 178.097 113.991 179.895 119.546L184.941 135.132C186.339 139.454 184.394 144.152 180.349 146.219L165.76 153.672C160.56 156.329 156.331 160.559 153.673 165.758L146.22 180.347C144.153 184.392 139.456 186.339 135.134 184.939L119.548 179.894C113.992 178.096 108.01 178.096 102.455 179.894L86.8686 184.939C82.547 186.339 77.8491 184.392 75.7826 180.347L68.329 165.758C65.6723 160.559 61.4428 156.329 56.2426 153.672L41.6538 146.219C37.6087 144.152 35.6628 139.454 37.0618 135.132L42.1072 119.546C43.9057 113.991 43.9057 108.01 42.1072 102.454L37.0618 86.8673C35.6628 82.5457 37.6087 77.8479 41.6538 75.7813L56.2426 68.3278C61.4428 65.671 65.6723 61.4415 68.329 56.2414L75.7826 41.6525ZM62.5274 108.756L101.771 148L167.179 82.5929L154.098 69.5114L101.771 121.837L75.6089 95.6738L62.5274 108.756Z" fill="#CFB0FF" fill-opacity="0.5"/>
</svg>
